<?xml version="1.0" standalone="no"?>
<!DOCTYPE svg PUBLIC "-//W3C//DTD SVG 20010904//EN"
 "http://www.w3.org/TR/2001/REC-SVG-20010904/DTD/svg10.dtd">
<svg version="1.0" xmlns="http://www.w3.org/2000/svg"
 width="512.000000pt" height="512.000000pt" viewBox="0 0 512.000000 512.000000"
 preserveAspectRatio="xMidYMid meet">

<g transform="translate(0.000000,512.000000) scale(0.100000,-0.100000)"
fill="#000000" stroke="none">
<path d="M2055 5030 c-271 -70 -581 -207 -810 -358 -665 -436 -1100 -1091
-1222 -1837 -25 -155 -25 -497 1 -649 71 -428 212 -769 449 -1085 93 -124 285
-322 412 -424 605 -488 1441 -707 2201 -577 569 97 975 297 1351 663 199 194
340 384 455 612 212 419 276 863 188 1295 -80 395 -242 706 -510 983 -133 138
-223 213 -370 309 -654 427 -1520 508 -2215 206 -256 -111 -500 -288 -683
-498 -515 -589 -583 -1403 -168 -2025 438 -657 1346 -950 2134 -689 219 72
392 176 558 336 274 264 424 613 424 983 0 347 -128 648 -375 884 -354 337
-851 469 -1346 357 -211 -48 -369 -135 -520 -285 -245 -245 -337 -558 -259
-878 55 -231 204 -424 425 -555 276 -164 642 -189 905 -61 105 51 214 160 263
264 116 241 43 510 -178 658 -112 75 -185 96 -330 96 -104 0 -126 -3 -166 -23
-105 -51 -118 -188 -25 -255 28 -20 43 -22 156 -22 143 0 178 -12 243 -84 103
-114 55 -292 -98 -369 -91 -45 -288 -58 -418 -28 -313 73 -523 337 -504 633
17 252 197 482 456 582 220 85 532 87 769 7 340 -116 589 -370 678 -692 22
-81 30 -313 14 -412 -78 -485 -495 -840 -1078 -917 -490 -65 -967 93 -1313
435 -251 247 -381 557 -382 910 -1 231 45 423 153 638 125 250 297 444 532
599 553 365 1383 391 2008 62 551 -290 898 -799 952 -1394 27 -296 -30 -588
-172 -883 -224 -466 -639 -841 -1130 -1025 -125 -47 -264 -81 -430 -106 -861
-130 -1627 91 -2147 620 -121 123 -184 201 -268 329 -254 385 -382 881 -346
1335 71 872 634 1583 1541 1945 52 21 163 59 245 86 83 26 160 54 172 62 36
22 66 95 58 140 -8 52 -57 109 -103 122 -49 13 -50 13 -177 -20z"/>
</g>
</svg>
