<?xml version="1.0" standalone="no"?>
<!DOCTYPE svg PUBLIC "-//W3C//DTD SVG 20010904//EN"
 "http://www.w3.org/TR/2001/REC-SVG-20010904/DTD/svg10.dtd">
<svg version="1.0" xmlns="http://www.w3.org/2000/svg"
 width="512.000000pt" height="512.000000pt" viewBox="0 0 512.000000 512.000000"
 preserveAspectRatio="xMidYMid meet">

<g transform="translate(0.000000,512.000000) scale(0.100000,-0.100000)"
fill="#000000" stroke="none">
<path d="M510 2560 l0 -2050 1793 2 1792 3 0 1705 0 1705 -1450 0 -1450 0 0
-1365 0 -1365 1108 -3 1107 -2 0 1025 0 1025 -765 0 -765 0 0 -680 0 -680 425
0 425 0 0 340 0 340 -170 0 -170 0 0 -85 0 -85 85 0 85 0 0 -170 0 -170 -255
0 -255 0 0 510 0 510 595 0 595 0 0 -850 0 -850 -935 0 -935 0 0 1190 0 1190
1280 0 1280 0 -2 -1532 -3 -1533 -1622 -3 -1623 -2 0 1880 0 1880 1965 0 1965
0 0 -1965 0 -1965 85 0 85 0 0 2050 0 2050 -2135 0 -2135 0 0 -2050z"/>
</g>
</svg>
